<?xml version="1.0" encoding="iso-8859-1"?>
<!-- Generator: Adobe Illustrator 19.0.0, SVG Export Plug-In . SVG Version: 6.00 Build 0)  -->
<svg version="1.1" id="Capa_1" xmlns="http://www.w3.org/2000/svg" xmlns:xlink="http://www.w3.org/1999/xlink" x="0px" y="0px"
	 viewBox="0 0 460 460" style="enable-background:new 0 0 460 460;" xml:space="preserve">
<g id="XMLID_512_">
	<path id="XMLID_515_" style="fill:#78B9EB;" d="M80,230c0-56.125,30.943-107.119,80.756-133.082l18.488,35.471
		C142.701,151.436,120,188.838,120,230c0,60.654,49.346,110,110,110V230h-20V40h20V0C102.975,0,0,102.975,0,230s102.975,230,230,230
		v-80C147.29,380,80,312.71,80,230z"/>
	<path id="XMLID_516_" style="fill:#3D9AE2;" d="M230,0v40h20v190h-20v110c60.654,0,110-49.346,110-110
		c0-41.162-22.701-78.564-59.244-97.611l18.488-35.471C349.057,122.881,380,173.875,380,230c0,82.71-67.29,150-150,150v80
		c127.025,0,230-102.975,230-230S357.025,0,230,0z"/>
	<path id="XMLID_517_" style="fill:#FFFFFF;" d="M120,230c0-41.162,22.701-78.564,59.244-97.611l-18.488-35.471
		C110.943,122.881,80,173.875,80,230c0,82.71,67.29,150,150,150s150-67.29,150-150c0-56.125-30.943-107.119-80.756-133.082
		l-18.488,35.471C317.299,151.436,340,188.838,340,230c0,60.654-49.346,110-110,110S120,290.654,120,230z"/>
	<rect id="XMLID_518_" x="210" y="40" style="fill:#FFFFFF;" width="40" height="190"/>
</g>
<g>
</g>
<g>
</g>
<g>
</g>
<g>
</g>
<g>
</g>
<g>
</g>
<g>
</g>
<g>
</g>
<g>
</g>
<g>
</g>
<g>
</g>
<g>
</g>
<g>
</g>
<g>
</g>
<g>
</g>
</svg>
