<?xml version="1.0" encoding="iso-8859-1"?>
<!-- Generator: Adobe Illustrator 19.0.0, SVG Export Plug-In . SVG Version: 6.00 Build 0)  -->
<svg version="1.1" id="Layer_1" xmlns="http://www.w3.org/2000/svg" xmlns:xlink="http://www.w3.org/1999/xlink" x="0px" y="0px"
	 viewBox="0 0 405.333 405.333" style="enable-background:new 0 0 405.333 405.333;" xml:space="preserve">
<path style="fill:#50C8EF;" d="M34.784,0v132.809h43.61v-33.98c0-7.906,3.012-15.808,9.041-21.837
	c6.037-6.029,13.943-9.041,21.845-9.041h46.323v262.891c0,7.906-3.012,15.804-9.041,21.841c-6.033,6.029-13.943,9.041-21.841,9.041
	h-32.99v43.61h221.858v-43.61h-32.981c-7.91,0-15.808-3.012-21.833-9.041c-6.042-6.037-9.05-13.939-9.05-21.841V67.951h46.323
	c7.91,0,15.808,3.012,21.841,9.041c6.025,6.029,9.041,13.935,9.041,21.837v33.98h43.618V0H34.784z"/>
<g>
</g>
<g>
</g>
<g>
</g>
<g>
</g>
<g>
</g>
<g>
</g>
<g>
</g>
<g>
</g>
<g>
</g>
<g>
</g>
<g>
</g>
<g>
</g>
<g>
</g>
<g>
</g>
<g>
</g>
</svg>
