<?xml version="1.0" encoding="iso-8859-1"?>
<!-- Generator: Adobe Illustrator 19.0.0, SVG Export Plug-In . SVG Version: 6.00 Build 0)  -->
<svg version="1.1" id="Layer_1" xmlns="http://www.w3.org/2000/svg" xmlns:xlink="http://www.w3.org/1999/xlink" x="0px" y="0px"
	 viewBox="0 0 512 512" style="enable-background:new 0 0 512 512;" xml:space="preserve">
<path style="fill:#FF6469;" d="M499.2,388.266h-8.533c-2.354,0-4.267-1.917-4.267-4.267V281.6c0-39.991-32.538-72.533-72.533-72.533
	h-34.133c-39.996,0-72.533,32.542-72.533,72.533c0,7.067,5.729,12.8,12.8,12.8h34.133c7.071,0,12.8-5.733,12.8-12.8
	c0-19.858,11.108-46.933,29.867-46.933s29.867,27.075,29.867,46.933v7.901c-12.87,4.102-25.588,6.299-37.95,8.316
	c-25.729,4.192-50.033,8.15-67.617,29.583c-13.637,16.617-16.962,37.834-8.671,55.358c9.35,19.776,30.771,31.109,58.771,31.109
	h17.067c15.198,0,29.477-3.658,44.876-11.524c5.473,6.962,13.87,11.524,23.391,11.524H499.2c7.071,0,12.8-5.733,12.8-12.8
	C512,394,506.271,388.266,499.2,388.266z M426.667,376.782c-13.814,7.905-25.871,11.485-38.4,11.485
	c-11.534,0-16.658-7.659-18.691-12.225c-3.862-8.691-3.721-21.941,5.309-31.95c11.343-12.579,32.176-20.477,51.783-26.647v59.338
	H426.667z"/>
<path style="fill:#FFDC69;" d="M285.867,388.266h-8.492L161.171,106.058c-1.975-4.793-6.651-7.925-11.838-7.925
	s-9.862,3.134-11.838,7.925L21.292,388.266H12.8c-7.071,0-12.8,5.733-12.8,12.8c0,7.067,5.729,12.8,12.8,12.8h17.102
	c0.049,0,0.099,0.001,0.148,0h16.883c7.071,0,12.8-5.733,12.8-12.8c0-6.394-4.704-11.65-10.833-12.602l24.677-59.932h108.844
	l24.678,59.932c-6.129,0.951-10.833,6.208-10.833,12.602c0,7.067,5.729,12.8,12.8,12.8h76.8c7.071,0,12.8-5.733,12.8-12.8
	C298.667,394,292.938,388.266,285.867,388.266z M84.118,302.933l43.881-106.569l43.882,106.569H84.118z"/>
<g>
</g>
<g>
</g>
<g>
</g>
<g>
</g>
<g>
</g>
<g>
</g>
<g>
</g>
<g>
</g>
<g>
</g>
<g>
</g>
<g>
</g>
<g>
</g>
<g>
</g>
<g>
</g>
<g>
</g>
</svg>
