<?xml version="1.0" encoding="iso-8859-1"?>
<!-- Generator: Adobe Illustrator 19.0.0, SVG Export Plug-In . SVG Version: 6.00 Build 0)  -->
<svg version="1.1" id="Layer_1" xmlns="http://www.w3.org/2000/svg" xmlns:xlink="http://www.w3.org/1999/xlink" x="0px" y="0px"
	 viewBox="0 0 511.999 511.999" style="enable-background:new 0 0 511.999 511.999;" xml:space="preserve">
<path style="fill:#7A7A7C;" d="M318.462,423.75l-0.001-258.316L67.022,204.689v214.834c-3.484-0.683-7.111-1.038-10.824-1.038
	c-13.112,0-26.077,4.266-36.51,12.012c-11.432,8.489-18.563,20.422-19.567,32.737c-0.988,12.104,4.139,24.037,13.718,31.923
	c8.221,6.765,19.401,10.49,31.485,10.49c5.692,0,11.423-0.824,17.036-2.449c18.888-5.474,39.188-22.068,39.144-45.576h0.001V286.457
	l182.479-28.489l0.001,127.684c-3.484-0.685-7.111-1.038-10.825-1.038c-13.113,0-26.079,4.266-36.508,12.011
	c-11.431,8.487-18.563,20.419-19.57,32.737c-0.988,12.103,4.139,24.037,13.718,31.924c8.22,6.764,19.4,10.489,31.485,10.489
	c5.697,0,11.429-0.824,17.035-2.449c18.887-5.471,39.187-22.064,39.145-45.575h-0.002V423.75z M101.502,251.56v-17.356
	l182.479-28.489v17.356L101.502,251.56z"/>
<path style="fill:#D02D7F;" d="M418.123,6.352c-15.952,0-29.85,9.342-37.158,23.166c-7.308-13.824-21.206-23.166-37.158-23.166
	c-27.997,0-46.549,20.336-46.549,45.426c0,25.086,14.142,40.268,46.549,63.163c28.316,20.006,37.158,34.046,37.158,34.046
	s8.843-14.039,37.158-34.046c32.405-22.895,46.547-38.077,46.547-63.163C464.671,26.688,446.122,6.352,418.123,6.352z"/>
<path style="fill:#C42C78;" d="M418.123,6.352c-15.952,0-29.85,9.342-37.158,23.166c0,13.667,0,119.469,0,119.469
	s8.843-14.039,37.158-34.046c32.405-22.895,46.547-38.077,46.547-63.163C464.671,26.688,446.122,6.352,418.123,6.352z"/>
<path style="fill:#D02D7F;" d="M477.152,213.919c-11.942,0-22.347,6.994-27.818,17.342c-5.472-10.349-15.875-17.342-27.818-17.342
	c-20.96,0-34.848,15.225-34.848,34.007c0,18.78,10.587,30.146,34.848,47.287c21.198,14.977,27.818,25.488,27.818,25.488
	s6.62-10.51,27.818-25.488c24.26-17.14,34.847-28.506,34.847-47.287C511.999,229.144,498.113,213.919,477.152,213.919z"/>
<path style="fill:#C42C78;" d="M477.152,213.919c-11.942,0-22.347,6.994-27.818,17.342c0,10.232,0,89.439,0,89.439
	s6.62-10.51,27.818-25.488c24.26-17.14,34.847-28.506,34.847-47.287C511.999,229.144,498.113,213.919,477.152,213.919z"/>
<path style="fill:#6A6A6B;" d="M318.461,165.434l-125.719,19.629v34.897l91.24-14.245v17.356l-91.24,14.245v34.897l91.24-14.245
	l0.001,127.684c-3.484-0.685-7.111-1.038-10.825-1.038c-13.113,0-26.079,4.266-36.508,12.011
	c-11.431,8.487-18.563,20.419-19.57,32.737c-0.988,12.103,4.139,24.037,13.718,31.924c8.22,6.764,19.4,10.489,31.485,10.489
	c5.697,0,11.429-0.824,17.035-2.449c18.887-5.471,39.187-22.064,39.145-45.575h0.001L318.461,165.434z"/>
<g>
</g>
<g>
</g>
<g>
</g>
<g>
</g>
<g>
</g>
<g>
</g>
<g>
</g>
<g>
</g>
<g>
</g>
<g>
</g>
<g>
</g>
<g>
</g>
<g>
</g>
<g>
</g>
<g>
</g>
</svg>
