<?xml version="1.0" encoding="iso-8859-1"?>
<!-- Generator: Adobe Illustrator 19.0.0, SVG Export Plug-In . SVG Version: 6.00 Build 0)  -->
<svg version="1.1" id="Layer_1" xmlns="http://www.w3.org/2000/svg" xmlns:xlink="http://www.w3.org/1999/xlink" x="0px" y="0px"
	 viewBox="0 0 512.004 512.004" style="enable-background:new 0 0 512.004 512.004;" xml:space="preserve">
<g>
	<path style="fill:#64C37D;" d="M494.533,198.738l-59.973-0.268c-12.645-39.196-38.065-74-73.63-97.995
		c-40.399-27.257-89.084-37.666-137.085-29.309c-47.861,8.332-90.058,34.417-118.817,73.451c-5.748,7.801-4.083,18.786,3.719,24.533
		c7.803,5.748,18.786,4.083,24.533-3.719c48.627-66.002,140-81.759,208.026-35.867c25.563,17.245,44.677,41.361,55.875,68.738
		l-44.328-0.198c-0.027,0-0.053,0-0.078,0c-7.065,0-13.445,4.239-16.179,10.759c-2.745,6.545-1.278,14.097,3.719,19.138
		l70.526,71.158c0.044,0.044,0.094,0.083,0.139,0.127c0.123,0.122,0.259,0.233,0.384,0.351c0.29,0.269,0.578,0.538,0.883,0.785
		c0.133,0.11,0.28,0.207,0.418,0.312c0.313,0.24,0.628,0.481,0.956,0.698c0.14,0.094,0.291,0.173,0.434,0.262
		c0.344,0.214,0.688,0.426,1.043,0.615c0.126,0.067,0.262,0.122,0.39,0.186c0.392,0.195,0.786,0.386,1.191,0.551
		c0.096,0.04,0.199,0.07,0.296,0.108c0.451,0.174,0.908,0.338,1.374,0.475c0.071,0.021,0.146,0.036,0.22,0.056
		c0.499,0.14,1.002,0.262,1.515,0.358c0.019,0.004,0.035,0.009,0.054,0.013c0.091,0.016,0.181,0.022,0.273,0.037
		c0.429,0.073,0.861,0.138,1.297,0.178c0.11,0.011,0.22,0.011,0.33,0.019c0.395,0.028,0.791,0.062,1.19,0.064
		c0.026,0,0.051,0,0.077,0c0.339,0,0.674-0.03,1.012-0.05c0.194-0.012,0.391-0.012,0.585-0.029c0.285-0.026,0.565-0.074,0.848-0.113
		c0.256-0.036,0.511-0.067,0.763-0.113c0.278-0.051,0.554-0.12,0.83-0.186c0.243-0.057,0.485-0.113,0.725-0.181
		c0.284-0.08,0.564-0.172,0.843-0.267c0.22-0.075,0.439-0.15,0.656-0.234c0.288-0.11,0.571-0.228,0.852-0.353
		c0.197-0.088,0.388-0.179,0.58-0.273c0.289-0.142,0.574-0.285,0.854-0.442c0.173-0.097,0.34-0.2,0.511-0.303
		c0.284-0.172,0.57-0.344,0.845-0.533c0.15-0.102,0.291-0.214,0.437-0.32c0.704-0.515,1.384-1.066,2.011-1.687l71.156-70.526
		c5.04-4.996,6.575-12.536,3.888-19.104C508.007,203.074,501.628,198.771,494.533,198.738z"/>
	<path style="fill:#64C37D;" d="M403.246,342.867c-7.798-5.748-18.784-4.086-24.533,3.716
		c-48.632,65.994-140.005,81.74-208.014,35.853c-25.557-17.243-44.671-41.354-55.869-68.724l44.318,0.198c0.026,0,0.053,0,0.08,0
		c0.007,0,0.014,0,0.022,0c9.69,0,17.546-7.856,17.546-17.546c0-5.093-2.169-9.677-5.634-12.883l-69.993-70.63
		c-0.044-0.044-0.094-0.083-0.139-0.126c-0.136-0.135-0.283-0.257-0.423-0.388c-0.275-0.254-0.549-0.511-0.838-0.745
		c-0.164-0.132-0.338-0.25-0.505-0.378c-0.285-0.215-0.566-0.433-0.863-0.63c-0.186-0.123-0.384-0.232-0.575-0.347
		c-0.296-0.18-0.59-0.364-0.895-0.526c-0.188-0.101-0.387-0.185-0.581-0.278c-0.326-0.159-0.654-0.319-0.99-0.457
		c-0.17-0.069-0.345-0.123-0.516-0.187c-0.377-0.142-0.756-0.281-1.145-0.395c-0.149-0.044-0.302-0.076-0.453-0.116
		c-0.42-0.113-0.842-0.219-1.27-0.301c-0.036-0.007-0.071-0.019-0.108-0.025c-0.133-0.025-0.267-0.032-0.4-0.053
		c-0.405-0.064-0.809-0.124-1.22-0.161c-0.226-0.02-0.45-0.025-0.676-0.036c-0.263-0.013-0.523-0.042-0.787-0.043
		c-0.09-0.001-0.179,0.011-0.269,0.011c-0.212,0.002-0.419,0.016-0.628,0.026c-0.39,0.016-0.778,0.039-1.165,0.082
		c-0.15,0.018-0.298,0.043-0.447,0.064c-0.42,0.058-0.839,0.125-1.254,0.214c-0.146,0.032-0.289,0.073-0.434,0.108
		c-0.402,0.098-0.804,0.201-1.197,0.328c-0.166,0.053-0.326,0.116-0.489,0.173c-0.366,0.129-0.728,0.261-1.084,0.414
		c-0.186,0.08-0.366,0.171-0.55,0.257c-0.323,0.152-0.647,0.304-0.959,0.476c-0.202,0.11-0.395,0.233-0.592,0.35
		c-0.285,0.171-0.571,0.34-0.848,0.528c-0.212,0.143-0.412,0.299-0.615,0.452c-0.248,0.184-0.497,0.364-0.736,0.56
		c-0.225,0.186-0.436,0.388-0.653,0.585c-0.17,0.154-0.347,0.296-0.511,0.459L5.195,283.269c-5.04,4.996-6.575,12.536-3.888,19.104
		c2.687,6.569,9.065,10.871,16.161,10.904l59.98,0.268c12.646,39.19,38.065,73.99,73.624,97.982
		c31.301,21.119,67.572,32.124,104.649,32.124c10.773,0,21.62-0.93,32.428-2.811c47.857-8.329,90.052-34.41,118.813-73.438
		C412.712,359.6,411.047,348.615,403.246,342.867z"/>
</g>
<g>
</g>
<g>
</g>
<g>
</g>
<g>
</g>
<g>
</g>
<g>
</g>
<g>
</g>
<g>
</g>
<g>
</g>
<g>
</g>
<g>
</g>
<g>
</g>
<g>
</g>
<g>
</g>
<g>
</g>
</svg>
