<?xml version="1.0" encoding="iso-8859-1"?>
<!-- Generator: Adobe Illustrator 19.0.0, SVG Export Plug-In . SVG Version: 6.00 Build 0)  -->
<svg version="1.1" id="Layer_1" xmlns="http://www.w3.org/2000/svg" xmlns:xlink="http://www.w3.org/1999/xlink" x="0px" y="0px"
	 viewBox="0 0 512 512" style="enable-background:new 0 0 512 512;" xml:space="preserve">
<polygon style="fill:#42C8C6;" points="0.003,99.465 412.536,511.997 436.408,488.127 254.012,257.99 23.874,75.594 "/>
<polygon style="fill:#81E3E2;" points="23.874,75.594 436.408,488.127 511.998,412.536 486.256,386.794 474.32,386.796 
	474.321,374.86 454.544,355.082 442.608,355.083 442.608,343.146 422.832,323.371 410.896,323.372 410.896,311.435 391.119,291.657 
	379.183,291.658 379.184,279.722 232.278,132.817 220.342,132.818 220.344,120.882 200.566,101.104 188.63,101.105 188.63,89.169 
	168.854,69.393 156.917,69.393 156.919,57.457 137.142,37.68 125.205,37.68 125.206,25.744 99.464,0.004 "/>
<polygon style="fill:#4D4D4D;" points="71.562,440.439 71.562,488.147 0,512 "/>
<polygon style="fill:#737373;" points="23.854,440.439 65.599,434.475 59.635,476.22 0,512 "/>
<polygon style="fill:#FEA680;" points="131.197,404.657 143.125,464.292 71.562,488.147 59.635,476.22 "/>
<polygon style="fill:#FFC1A6;" points="47.708,368.877 145.86,366.14 119.27,440.439 59.635,476.22 23.854,440.439 "/>
<polygon style="fill:#DFC136;" points="406.744,121.159 422.647,184.771 143.125,464.292 119.27,440.439 "/>
<path style="fill:#FE5F1A;" d="M390.842,121.159l63.611,31.806l47.708-47.708c13.12-13.12,13.12-34.589,0-47.708l-23.854-23.854
	L390.842,121.159z"/>
<polygon style="fill:#FFE777;" points="47.708,368.877 95.417,416.585 133.584,407.042 413.105,127.52 327.231,89.354 "/>
<rect x="242.155" y="62.31" transform="matrix(0.7071 0.7071 -0.7071 0.7071 271.6105 -102.0766)" style="fill:#FEDC3D;" width="33.734" height="429.029"/>
<path style="fill:#FE834D;" d="M454.452,9.84l23.854,23.854c13.12,13.12,13.12,34.589,0,47.708l-63.611,63.611l-55.659-87.465
	l47.708-47.708C419.864-3.28,441.333-3.28,454.452,9.84z"/>
<rect x="409.752" y="134.454" transform="matrix(0.7071 0.7071 -0.7071 0.7071 235.9297 -255.6972)" style="fill:#ABECEC;" width="33.734" height="44.979"/>
<rect x="328.315" y="86.756" transform="matrix(0.7071 0.7071 -0.7071 0.7071 188.2306 -235.9382)" style="fill:#D5F6F5;" width="101.206" height="44.979"/>
<g>
	<path style="fill:#02ACAB;" d="M125.205,25.746l-23.87,23.87c-3.296,3.296-3.296,8.639,0,11.936c3.296,3.297,8.64,3.296,11.936,0
		l23.87-23.87L125.205,25.746z"/>
	<path style="fill:#02ACAB;" d="M156.917,57.458l-23.87,23.87c-3.296,3.296-3.296,8.639,0,11.936c3.296,3.297,8.64,3.296,11.936,0
		l23.87-23.87L156.917,57.458z"/>
	<path style="fill:#02ACAB;" d="M188.63,89.169l-23.87,23.87c-3.296,3.296-3.296,8.639,0,11.936c3.296,3.297,8.64,3.296,11.936,0
		l23.87-23.87L188.63,89.169z"/>
	<path style="fill:#02ACAB;" d="M220.342,120.882l-23.87,23.87c-3.296,3.296-3.296,8.639,0,11.936c3.296,3.297,8.64,3.296,11.936,0
		l23.87-23.87L220.342,120.882z"/>
	<path style="fill:#02ACAB;" d="M474.32,374.86l-23.87,23.87c-3.296,3.296-3.296,8.639,0,11.936c3.296,3.296,8.64,3.296,11.936,0
		l23.87-23.87L474.32,374.86z"/>
	<path style="fill:#02ACAB;" d="M442.608,343.147l-23.87,23.87c-3.296,3.296-3.296,8.639,0,11.936c3.296,3.296,8.64,3.296,11.936,0
		l23.87-23.87L442.608,343.147z"/>
	<path style="fill:#02ACAB;" d="M410.896,311.436l-23.87,23.87c-3.296,3.296-3.296,8.639,0,11.936c3.296,3.296,8.64,3.296,11.936,0
		l23.87-23.87L410.896,311.436z"/>
	<path style="fill:#02ACAB;" d="M379.183,279.723l-23.87,23.87c-3.296,3.296-3.296,8.639,0,11.936c3.296,3.296,8.64,3.296,11.936,0
		l23.87-23.87L379.183,279.723z"/>
</g>
<g>
</g>
<g>
</g>
<g>
</g>
<g>
</g>
<g>
</g>
<g>
</g>
<g>
</g>
<g>
</g>
<g>
</g>
<g>
</g>
<g>
</g>
<g>
</g>
<g>
</g>
<g>
</g>
<g>
</g>
</svg>
