<?xml version="1.0" encoding="iso-8859-1"?>
<!-- Generator: Adobe Illustrator 19.0.0, SVG Export Plug-In . SVG Version: 6.00 Build 0)  -->
<svg version="1.1" id="Layer_1" xmlns="http://www.w3.org/2000/svg" xmlns:xlink="http://www.w3.org/1999/xlink" x="0px" y="0px"
	 viewBox="0 0 496 496" style="enable-background:new 0 0 496 496;" xml:space="preserve">
<path style="fill:#1BCEB8;" d="M496,252.8c0,88-71.2,155.2-158.4,155.2H158.4C71.2,408,0,340.8,0,252.8v-9.6
	C0,155.2,71.2,88,158.4,88h178.4c88,0,158.4,67.2,158.4,155.2v9.6H496z"/>
<g>
	<path style="fill:#0DBFBA;" d="M0,256v-12.8C0,155.2,71.2,88,158.4,88h178.4c88,0,158.4,67.2,158.4,155.2V256"/>
	<path style="fill:#0DBFBA;" d="M368,252.8v-9.6c0-88-71.2-155.2-158.4-155.2h-50.4C71.2,88,0,155.2,0,243.2v9.6
		C0,340.8,71.2,408,158.4,408h50.4C296.8,408,368,340.8,368,252.8z"/>
</g>
<circle style="fill:#FFFFFF;" cx="162.4" cy="248" r="142.4"/>
<path style="fill:#E9F4F2;" d="M62.4,147.2C117.6,92,208,92,263.2,147.2s55.2,145.6,0,200.8"/>
<g>
</g>
<g>
</g>
<g>
</g>
<g>
</g>
<g>
</g>
<g>
</g>
<g>
</g>
<g>
</g>
<g>
</g>
<g>
</g>
<g>
</g>
<g>
</g>
<g>
</g>
<g>
</g>
<g>
</g>
</svg>
