<?xml version="1.0" encoding="iso-8859-1"?>
<!-- Generator: Adobe Illustrator 19.0.0, SVG Export Plug-In . SVG Version: 6.00 Build 0)  -->
<svg version="1.1" id="Layer_1" xmlns="http://www.w3.org/2000/svg" xmlns:xlink="http://www.w3.org/1999/xlink" x="0px" y="0px"
	 viewBox="0 0 455 455" style="enable-background:new 0 0 455 455;" xml:space="preserve">
<g>
	<rect x="40" y="317.595" style="fill:#9BFBFF;" width="98.333" height="60.19"/>
	<rect x="178.333" y="117.215" style="fill:#9BFBFF;" width="49.167" height="60.19"/>
	<rect x="178.333" y="317.595" style="fill:#9BFBFF;" width="49.167" height="60.19"/>
	<rect x="40" y="117.215" style="fill:#9BFBFF;" width="98.333" height="60.19"/>
	<rect x="40" y="217.405" style="fill:#9BFBFF;" width="98.333" height="60.19"/>
	<rect x="178.333" y="217.405" style="fill:#9BFBFF;" width="49.167" height="60.19"/>
	<rect x="316.667" y="217.405" style="fill:#46F8FF;" width="98.333" height="60.19"/>
	<rect x="227.5" y="117.215" style="fill:#46F8FF;" width="49.167" height="60.19"/>
	<rect x="316.667" y="117.215" style="fill:#46F8FF;" width="98.333" height="60.19"/>
	<rect x="316.667" y="317.595" style="fill:#46F8FF;" width="98.333" height="60.19"/>
	<rect x="227.5" y="217.405" style="fill:#46F8FF;" width="49.167" height="60.19"/>
	<rect x="227.5" y="317.595" style="fill:#46F8FF;" width="49.167" height="60.19"/>
	<path style="fill:#2488FF;" d="M415,117.215v60.19h-98.333v-60.19h-40v60.19h-98.334v-60.19h-40v60.19H40v-60.19H0v300.57h455
		v-300.57H415z M40,317.595h98.333v60.19H40V317.595z M178.333,317.595h98.334v60.19h-98.334V317.595z M316.667,317.595H415v60.19
		h-98.333V317.595z M415,217.405v60.19h-98.333v-60.19H415z M276.667,217.405v60.19h-98.334v-60.19H276.667z M138.333,217.405v60.19
		H40v-60.19H138.333z"/>
	<rect y="37.215" style="fill:#005ECE;" width="227.5" height="80"/>
	<rect x="227.5" y="37.215" style="fill:#003F8A;" width="227.5" height="80"/>
</g>
<g>
</g>
<g>
</g>
<g>
</g>
<g>
</g>
<g>
</g>
<g>
</g>
<g>
</g>
<g>
</g>
<g>
</g>
<g>
</g>
<g>
</g>
<g>
</g>
<g>
</g>
<g>
</g>
<g>
</g>
</svg>
