<?xml version="1.0" encoding="iso-8859-1"?>
<!-- Generator: Adobe Illustrator 19.0.0, SVG Export Plug-In . SVG Version: 6.00 Build 0)  -->
<svg version="1.1" id="Layer_1" xmlns="http://www.w3.org/2000/svg" xmlns:xlink="http://www.w3.org/1999/xlink" x="0px" y="0px"
	 viewBox="0 0 512.001 512.001" style="enable-background:new 0 0 512.001 512.001;" xml:space="preserve">
<path style="fill:#FFD3C7;" d="M396.064,33.743L276.69,39.615L0,316.304l195.697,195.697l276.69-276.689l5.871-119.375
	L396.064,33.743z M413.677,121.807c-6.485,6.485-16.998,6.485-23.483,0c-6.485-6.485-6.485-16.998,0-23.483
	c6.485-6.485,16.998-6.485,23.483,0C420.162,104.809,420.162,115.322,413.677,121.807z"/>
<path style="fill:#FF3776;" d="M355.673,156.327c-39.99-39.989-104.826-39.989-144.816,0
	c-37.96,37.96-40.978,114.977-32.236,167.368l-40.923,10.383l40.223,40.224l10.384-40.923
	c52.391,8.742,129.408,5.724,167.368-32.236C395.663,261.154,395.663,196.318,355.673,156.327z"/>
<path style="fill:#FFFFFF;" d="M332.189,188.115c-2.124,0-4.25-0.81-5.871-2.431c-11.479-11.48-26.769-17.802-43.053-17.802
	c-16.283,0-31.574,6.322-43.053,17.802c-3.242,3.241-8.5,3.241-11.741,0c-3.242-3.244-3.242-8.5,0-11.742
	c14.615-14.615,34.075-22.665,54.795-22.665c20.72,0,40.18,8.049,54.796,22.665c3.242,3.244,3.242,8.5,0,11.742
	C336.439,187.303,334.313,188.115,332.189,188.115z"/>
<path style="fill:#FF709D;" d="M169.551,428.556L83.444,342.45c-3.242-3.242-3.242-8.499,0-11.742c3.242-3.242,8.5-3.242,11.742,0
	l86.107,86.107c3.242,3.242,3.242,8.499,0,11.742C178.051,431.799,172.794,431.798,169.551,428.556z"/>
<path style="fill:#C8815C;" d="M399.979,112.022c-3.242-3.242-3.242-8.499,0-11.742l97.848-97.848c3.242-3.242,8.5-3.242,11.742,0
	c3.242,3.242,3.242,8.499,0,11.742l-97.848,97.848C408.477,115.264,403.221,115.264,399.979,112.022z"/>
<g>
</g>
<g>
</g>
<g>
</g>
<g>
</g>
<g>
</g>
<g>
</g>
<g>
</g>
<g>
</g>
<g>
</g>
<g>
</g>
<g>
</g>
<g>
</g>
<g>
</g>
<g>
</g>
<g>
</g>
</svg>
