<?xml version="1.0" encoding="iso-8859-1"?>
<!-- Generator: Adobe Illustrator 19.0.0, SVG Export Plug-In . SVG Version: 6.00 Build 0)  -->
<svg version="1.1" id="Layer_1" xmlns="http://www.w3.org/2000/svg" xmlns:xlink="http://www.w3.org/1999/xlink" x="0px" y="0px"
	 viewBox="0 0 512 512" style="enable-background:new 0 0 512 512;" xml:space="preserve">
<path style="fill:#64C37D;" d="M381.06,130.935l-108.598-108.6c-0.545-0.545-1.117-1.058-1.713-1.547
	c-0.259-0.213-0.538-0.402-0.807-0.604c-0.34-0.254-0.673-0.517-1.021-0.751c-0.326-0.217-0.669-0.408-1.004-0.61
	c-0.315-0.189-0.625-0.388-0.948-0.56c-0.343-0.183-0.698-0.34-1.052-0.507c-0.337-0.158-0.67-0.327-1.01-0.469
	c-0.341-0.141-0.694-0.256-1.043-0.382c-0.369-0.133-0.735-0.275-1.109-0.388c-0.346-0.106-0.703-0.183-1.057-0.272
	c-0.383-0.096-0.763-0.203-1.15-0.281c-0.41-0.082-0.83-0.132-1.246-0.191c-0.337-0.048-0.669-0.112-1.005-0.146
	c-0.756-0.073-1.522-0.115-2.298-0.115c-0.776,0-1.542,0.042-2.299,0.116c-0.327,0.033-0.653,0.095-0.981,0.141
	c-0.425,0.061-0.853,0.112-1.271,0.194c-0.375,0.074-0.745,0.18-1.117,0.273c-0.365,0.092-0.735,0.172-1.092,0.281
	c-0.362,0.11-0.717,0.248-1.072,0.375c-0.36,0.129-0.726,0.248-1.075,0.394c-0.33,0.137-0.652,0.301-0.977,0.453
	c-0.365,0.172-0.734,0.335-1.088,0.524c-0.306,0.163-0.602,0.355-0.901,0.534c-0.354,0.209-0.711,0.411-1.052,0.638
	c-0.324,0.219-0.636,0.465-0.954,0.703c-0.292,0.217-0.591,0.422-0.874,0.652c-0.557,0.458-1.098,0.948-1.621,1.466
	c-0.028,0.025-0.054,0.047-0.081,0.071L130.935,130.934c-9.087,9.089-9.089,23.824,0,32.912c9.087,9.089,23.824,9.087,32.912,0.002
	l68.88-68.876v285.147c0,12.853,10.42,23.273,23.273,23.273c12.853,0,23.273-10.42,23.273-23.273V94.973l68.875,68.875
	c4.544,4.544,10.501,6.817,16.455,6.817c5.956,0,11.913-2.273,16.457-6.817C390.149,154.759,390.149,140.023,381.06,130.935z"/>
<path style="fill:#A9A8AE;" d="M488.727,248.242c-12.853,0-23.273,10.42-23.273,23.273v178.424H46.545V271.515
	c0-12.853-10.42-23.273-23.273-23.273S0,258.662,0,271.515v201.697c0,12.853,10.42,23.273,23.273,23.273h465.455
	c12.853,0,23.273-10.42,23.273-23.273V271.515C512,258.662,501.58,248.242,488.727,248.242z"/>
<g>
</g>
<g>
</g>
<g>
</g>
<g>
</g>
<g>
</g>
<g>
</g>
<g>
</g>
<g>
</g>
<g>
</g>
<g>
</g>
<g>
</g>
<g>
</g>
<g>
</g>
<g>
</g>
<g>
</g>
</svg>
