<?xml version="1.0" encoding="iso-8859-1"?>
<!-- Generator: Adobe Illustrator 19.0.0, SVG Export Plug-In . SVG Version: 6.00 Build 0)  -->
<svg version="1.1" id="Layer_1" xmlns="http://www.w3.org/2000/svg" xmlns:xlink="http://www.w3.org/1999/xlink" x="0px" y="0px"
	 viewBox="0 0 496.078 496.078" style="enable-background:new 0 0 496.078 496.078;" xml:space="preserve">
<path style="fill:#F15249;" d="M496,374.439c0,29.6-24,53.6-53.6,53.6H53.6c-29.6,0-53.6-24-53.6-53.6v-252.8
	c0-29.6,24-53.6,53.6-53.6h388.8c29.6,0,53.6,24,53.6,53.6V374.439z"/>
<path style="fill:#AD0E0E;" d="M56,68.039h386.4c29.6,0,53.6,20.8,53.6,50.4v251.2c1.6,31.2-21.6,58.4-51.2,58.4"/>
<polygon style="fill:#FFFFFF;" points="168,128.839 168,359.239 324.8,244.039 "/>
<polygon style="fill:#EFEFEF;" points="168,239.239 168,359.239 324.8,244.039 "/>
<g>
	<circle style="fill:#AD0E0E;" cx="51.2" cy="116.839" r="19.2"/>
	<circle style="fill:#AD0E0E;" cx="51.2" cy="180.839" r="19.2"/>
	<circle style="fill:#AD0E0E;" cx="51.2" cy="244.039" r="19.2"/>
	<circle style="fill:#AD0E0E;" cx="51.2" cy="307.239" r="19.2"/>
	<circle style="fill:#AD0E0E;" cx="51.2" cy="371.239" r="19.2"/>
</g>
<g>
	<circle style="fill:#F15249;" cx="444.8" cy="116.839" r="19.2"/>
	<circle style="fill:#F15249;" cx="444.8" cy="180.839" r="19.2"/>
	<circle style="fill:#F15249;" cx="444.8" cy="244.039" r="19.2"/>
	<circle style="fill:#F15249;" cx="444.8" cy="307.239" r="19.2"/>
	<circle style="fill:#F15249;" cx="444.8" cy="371.239" r="19.2"/>
</g>
<g>
</g>
<g>
</g>
<g>
</g>
<g>
</g>
<g>
</g>
<g>
</g>
<g>
</g>
<g>
</g>
<g>
</g>
<g>
</g>
<g>
</g>
<g>
</g>
<g>
</g>
<g>
</g>
<g>
</g>
</svg>
