<?xml version="1.0" encoding="utf-8"?>
<!-- Generator: Adobe Illustrator 18.0.0, SVG Export Plug-In . SVG Version: 6.00 Build 0)  -->
<!DOCTYPE svg PUBLIC "-//W3C//DTD SVG 1.1//EN" "http://www.w3.org/Graphics/SVG/1.1/DTD/svg11.dtd">
<svg version="1.1" id="图层_1" xmlns="http://www.w3.org/2000/svg" xmlns:xlink="http://www.w3.org/1999/xlink" x="0px" y="0px"
	 viewBox="0 0 24 24" enable-background="new 0 0 24 24" xml:space="preserve">
<path d="M4.9,20.4c-0.3,0-0.6-0.1-0.8-0.4c-0.5-0.5-0.5-1.2,0-1.7L18.4,4c0.5-0.5,1.2-0.5,1.7,0c0.5,0.5,0.5,1.2,0,1.7L5.7,20
	C5.5,20.3,5.2,20.4,4.9,20.4z"/>
<path d="M19.3,20.4c-0.3,0-0.6-0.1-0.8-0.4L4,5.7C3.6,5.2,3.6,4.4,4,4s1.2-0.5,1.7,0l14.4,14.4c0.5,0.5,0.5,1.2,0,1.7
	C19.9,20.3,19.6,20.4,19.3,20.4z"/>
</svg>
