<?xml version="1.0" encoding="utf-8"?>
<!-- Generator: Adobe Illustrator 18.0.0, SVG Export Plug-In . SVG Version: 6.00 Build 0)  -->
<!DOCTYPE svg PUBLIC "-//W3C//DTD SVG 1.1//EN" "http://www.w3.org/Graphics/SVG/1.1/DTD/svg11.dtd">
<svg version="1.1" id="图层_1" xmlns="http://www.w3.org/2000/svg" xmlns:xlink="http://www.w3.org/1999/xlink" x="0px" y="0px"
	 viewBox="0 0 14 14" enable-background="new 0 0 14 14" xml:space="preserve">
<g>
	<path fill="#999999" d="M10.3,9.8H3.8C2.2,9.8,1,8.5,1,7V4.5C1,3,2.2,1.8,3.8,1.8h6.5C11.8,1.8,13,3,13,4.5V7
		C13,8.5,11.8,9.8,10.3,9.8z M3.8,2.8C2.8,2.8,2,3.5,2,4.5V7c0,1,0.8,1.8,1.8,1.8h6.5C11.2,8.8,12,8,12,7V4.5c0-1-0.8-1.8-1.8-1.8
		H3.8z"/>
</g>
<path fill="#999999" d="M7,12.3c-0.3,0-0.5-0.2-0.5-0.5v-2c0-0.3,0.2-0.5,0.5-0.5s0.5,0.2,0.5,0.5v2C7.5,12,7.3,12.3,7,12.3z"/>
<path fill="#999999" d="M9.5,12.3h-5C4.2,12.3,4,12,4,11.8s0.2-0.5,0.5-0.5h5c0.3,0,0.5,0.2,0.5,0.5S9.8,12.3,9.5,12.3z"/>
</svg>
