<?xml version="1.0" encoding="utf-8"?>
<!-- Generator: Adobe Illustrator 18.0.0, SVG Export Plug-In . SVG Version: 6.00 Build 0)  -->
<!DOCTYPE svg PUBLIC "-//W3C//DTD SVG 1.1//EN" "http://www.w3.org/Graphics/SVG/1.1/DTD/svg11.dtd">
<svg version="1.1" id="图层_1" xmlns="http://www.w3.org/2000/svg" xmlns:xlink="http://www.w3.org/1999/xlink" x="0px" y="0px"
	 viewBox="0 0 24 24" enable-background="new 0 0 24 24" xml:space="preserve">
<g>
	<g>
		<path fill-rule="evenodd" clip-rule="evenodd" fill="#040000" d="M17.9,11.6c0.2,3-1.4,5.6-4.3,6.7c-2.8,1.1-5.9,0.3-7.8-2
			c-1.9-2.3-2-5.5-0.3-7.9s4.7-3.5,7.6-2.7l0.6-2.1c-3.8-1.1-7.8,0.3-10,3.5c-2.2,3.3-2.1,7.4,0.5,10.5c2.5,3.1,6.6,4.1,10.3,2.7
			c3.7-1.5,6-5,5.6-8.9L17.9,11.6z"/>
	</g>
	<polygon fill-rule="evenodd" clip-rule="evenodd" fill="#040000" points="18.8,8 15.3,13.9 22.5,13.9 	"/>
</g>
</svg>
