<?xml version="1.0" encoding="utf-8"?>
<!-- Generator: Adobe Illustrator 18.0.0, SVG Export Plug-In . SVG Version: 6.00 Build 0)  -->
<!DOCTYPE svg PUBLIC "-//W3C//DTD SVG 1.1//EN" "http://www.w3.org/Graphics/SVG/1.1/DTD/svg11.dtd">
<svg version="1.1" id="图层_1" xmlns="http://www.w3.org/2000/svg" xmlns:xlink="http://www.w3.org/1999/xlink" x="0px" y="0px"
	 viewBox="0 0 24 24" enable-background="new 0 0 24 24" xml:space="preserve">
<path fill-rule="evenodd" clip-rule="evenodd" fill="#040000" d="M6.2,9c0,0-0.9,0.3-0.6,2.3c0,0-1.7,1.4-2,3.6c0,0-0.2,3.7,1.9,0.5
	c0,0,0.5,1.2,1.3,2.3c0,0-1.6,0.5-1.4,1.8c0,0-0.1,1.5,3.3,1.4c0,0,2.4-0.2,3.1-1.1H12l0,0h0.3c0.7,1,3.1,1.1,3.1,1.1
	c3.4,0.1,3.3-1.4,3.3-1.4c0.1-1.3-1.4-1.8-1.4-1.8c0.9-1.1,1.3-2.3,1.3-2.3c2.1,3.3,1.9-0.5,1.9-0.5c-0.4-2.2-2-3.6-2-3.6
	c0.2-2-0.6-2.3-0.6-2.3C17.6,2.9,12.2,3,12,3l0,0C11.8,3,6.4,2.9,6.2,9z"/>
</svg>
