<?xml version="1.0" encoding="utf-8"?>
<!-- Generator: Adobe Illustrator 18.0.0, SVG Export Plug-In . SVG Version: 6.00 Build 0)  -->
<!DOCTYPE svg PUBLIC "-//W3C//DTD SVG 1.1//EN" "http://www.w3.org/Graphics/SVG/1.1/DTD/svg11.dtd">
<svg version="1.1" id="图层_1" xmlns="http://www.w3.org/2000/svg" xmlns:xlink="http://www.w3.org/1999/xlink" x="0px" y="0px"
	 viewBox="0 0 24 24" enable-background="new 0 0 24 24" xml:space="preserve">
<g>
	<path fill-rule="evenodd" clip-rule="evenodd" fill="#040000" d="M11.7,4c0-1.4,1.1-2.5,2.5-2.5c1.4,0,2.5,1.1,2.5,2.5
		c0,1.4-1.1,2.5-2.5,2.5C12.9,6.5,11.7,5.4,11.7,4z"/>
	<path fill-rule="evenodd" clip-rule="evenodd" fill="#040000" d="M1.6,15.3c0-2.1,1.7-3.8,3.8-3.8s3.8,1.7,3.8,3.8
		s-1.7,3.8-3.8,3.8S1.6,17.4,1.6,15.3z"/>
	<path fill-rule="evenodd" clip-rule="evenodd" fill="#040000" d="M16.8,19.1c0-1.4,1.1-2.5,2.5-2.5c1.4,0,2.5,1.1,2.5,2.5
		c0,1.4-1.1,2.5-2.5,2.5C17.9,21.7,16.8,20.5,16.8,19.1z"/>
	<polygon fill-rule="evenodd" clip-rule="evenodd" fill="#040000" points="13,5.2 4.9,13.5 7.9,15.3 14.3,5.2 	"/>
	<polygon fill-rule="evenodd" clip-rule="evenodd" fill="#040000" points="17.7,17.9 6.7,14.1 7.9,17.9 19,19.7 	"/>
</g>
</svg>
