<?xml version="1.0" encoding="utf-8"?>
<!-- Generator: Adobe Illustrator 18.0.0, SVG Export Plug-In . SVG Version: 6.00 Build 0)  -->
<!DOCTYPE svg PUBLIC "-//W3C//DTD SVG 1.1//EN" "http://www.w3.org/Graphics/SVG/1.1/DTD/svg11.dtd">
<svg version="1.1" id="图层_1" xmlns="http://www.w3.org/2000/svg" xmlns:xlink="http://www.w3.org/1999/xlink" x="0px" y="0px"
	 viewBox="0 0 24 24" enable-background="new 0 0 24 24" xml:space="preserve">
<g>
	<path fill-rule="evenodd" clip-rule="evenodd" fill="#040000" d="M12,3.9c-4.5,0-8.1,3.6-8.1,8.1s3.6,8.1,8.1,8.1s8.1-3.6,8.1-8.1
		S16.5,3.9,12,3.9z M12,5.8c3.4,0,6.2,2.8,6.2,6.2s-2.8,6.2-6.2,6.2S5.8,15.4,5.8,12S8.6,5.8,12,5.8z"/>
	<path fill-rule="evenodd" clip-rule="evenodd" fill="#040000" d="M20.1,4.9c-1.2-1.3-1.4-1.4-2.7-0.1l2.7,2.9
		C21.4,6.4,21.3,6.2,20.1,4.9z"/>
	<path fill-rule="evenodd" clip-rule="evenodd" fill="#040000" d="M4,4.9C2.8,6.2,2.7,6.4,4,7.7l2.7-2.9C5.5,3.5,5.3,3.6,4,4.9z"/>
	<g>
		<path fill="#040000" d="M17.2,17.7l1.8,2.8c0.1,0.2-0.8,0.5-1.2,0.6c-0.3,0.2-0.6-0.1-0.6-0.2l-1.3-2.6
			C15.7,18,17.1,17.3,17.2,17.7z"/>
	</g>
	<g>
		<path fill="#040000" d="M6.8,17.7L5,20.4c-0.1,0.2,0.8,0.5,1.2,0.6c0.3,0.2,0.6-0.1,0.6-0.2l1.3-2.6C8.3,18,6.9,17.3,6.8,17.7z"/>
	</g>
	<path fill="#040000" d="M13.6,15.4c-0.3,0-0.5-0.1-0.7-0.3l-1.7-1.7C11.1,13.2,11,13,11,12.7V9.2c0-0.6,0.5-1,1-1c0.6,0,1,0.5,1,1
		v3.1l1.4,1.4c0.4,0.4,0.4,1,0,1.4C14.1,15.3,13.9,15.4,13.6,15.4z"/>
</g>
</svg>
