<?xml version="1.0" encoding="utf-8"?>
<!-- Generator: Adobe Illustrator 18.0.0, SVG Export Plug-In . SVG Version: 6.00 Build 0)  -->
<!DOCTYPE svg PUBLIC "-//W3C//DTD SVG 1.1//EN" "http://www.w3.org/Graphics/SVG/1.1/DTD/svg11.dtd">
<svg version="1.1" id="图层_1" xmlns="http://www.w3.org/2000/svg" xmlns:xlink="http://www.w3.org/1999/xlink" x="0px" y="0px"
	 viewBox="0 0 24 24" enable-background="new 0 0 24 24" xml:space="preserve">
<path fill-rule="evenodd" clip-rule="evenodd" fill="#040000" d="M17.6,11.4c-0.3-0.1-0.5-0.2-0.4-0.6c0.4-0.9,0.4-1.7,0-2.3
	c-0.7-1-2.7-1-4.9,0c0,0-0.7,0.3-0.5-0.3c0.4-1.2,0.3-2.1-0.2-2.7c-1.2-1.3-4.4,0-7.2,2.9C2.3,10.7,1.1,13,1.1,15c0,3.8,4.7,6,9.2,6
	c6,0,10-3.6,10-6.4C20.3,12.8,18.9,11.8,17.6,11.4z M10.3,19.7c-3.6,0.4-6.8-1.3-7-3.8c-0.2-2.5,2.5-4.8,6.2-5.1
	c3.6-0.4,6.8,1.3,7,3.8S14,19.3,10.3,19.7z"/>
<path fill="#040000" d="M21.6,4.5C20.1,2.8,18,2.2,16,2.6c-0.5,0.1-0.7,0.6-0.6,1c0.1,0.5,0.5,0.8,1,0.7c1.4-0.3,2.9,0.1,3.9,1.3
	c1,1.2,1.3,2.8,0.9,4.2c-0.1,0.5,0.1,0.9,0.5,1.1c0.4,0.2,0.9-0.1,1.1-0.6C23.4,8.4,23,6.1,21.6,4.5z"/>
<path fill="#040000" d="M19,6.6c-0.7-0.8-1.7-1.1-2.7-0.9c-0.4,0.1-0.6,0.5-0.6,0.9c0.1,0.4,0.5,0.7,0.9,0.6c0.5-0.1,1,0,1.3,0.4
	C18.2,8,18.3,8.5,18.2,9c-0.1,0.4,0.1,0.8,0.5,0.9c0.4,0.1,0.8-0.1,0.9-0.5C19.9,8.5,19.7,7.4,19,6.6z"/>
<path fill-rule="evenodd" clip-rule="evenodd" fill="#040000" d="M10.5,12.5c-1.7-0.5-3.7,0.4-4.4,2c-0.8,1.6,0,3.4,1.7,4
	c1.8,0.6,4-0.3,4.7-2.1C13.2,14.7,12.3,13,10.5,12.5z M9.2,16.6c-0.3,0.6-1.1,0.8-1.7,0.6c-0.6-0.3-0.7-0.9-0.4-1.5
	c0.4-0.6,1.1-0.8,1.6-0.6S9.6,16,9.2,16.6z M10.4,15.1c-0.1,0.2-0.4,0.3-0.6,0.2c-0.2-0.1-0.3-0.3-0.2-0.6c0.1-0.2,0.4-0.3,0.6-0.2
	C10.4,14.6,10.5,14.8,10.4,15.1z"/>
</svg>
