<?xml version="1.0" encoding="utf-8"?>
<!-- Generator: Adobe Illustrator 18.0.0, SVG Export Plug-In . SVG Version: 6.00 Build 0)  -->
<!DOCTYPE svg PUBLIC "-//W3C//DTD SVG 1.1//EN" "http://www.w3.org/Graphics/SVG/1.1/DTD/svg11.dtd">
<svg version="1.1" id="图层_1" xmlns="http://www.w3.org/2000/svg" xmlns:xlink="http://www.w3.org/1999/xlink" x="0px" y="0px"
	 viewBox="0 0 24 24" enable-background="new 0 0 24 24" xml:space="preserve">
<g>
	<path fill-rule="evenodd" clip-rule="evenodd" fill="#040000" d="M1,9.6c0,2,1.1,3.8,2.8,5l-0.6,2.6l2.6-1.6c0.9,0.3,1.9,0.5,3,0.5
		l0.4,0c-0.1-0.5-0.2-1-0.2-1.5c0-3.3,3.2-5.9,7.1-5.9l0.5,0C16,5.5,12.8,3,8.8,3C4.5,3,1,5.9,1,9.6z M4.7,7.5c0-0.6,0.5-1,1-1
		s1,0.4,1,1c0,0.5-0.5,1-1,1S4.7,8,4.7,7.5z M10.7,7.5c0-0.6,0.5-1,1-1c0.6,0,1,0.4,1,1c0,0.5-0.5,1-1,1C11.2,8.5,10.7,8,10.7,7.5z"
		/>
	<path fill-rule="evenodd" clip-rule="evenodd" fill="#040000" d="M23,14.8c0-3.1-3-5.6-6.6-5.6c-3.7,0-6.6,2.5-6.6,5.6
		s3,5.6,6.6,5.6c1,0,1.9-0.2,2.8-0.5l2.1,1.1l-0.5-2C22.1,18,23,16.5,23,14.8z M19.7,12.8c0,0.5-0.4,0.8-0.9,0.8
		c-0.5,0-0.9-0.4-0.9-0.8c0-0.5,0.4-0.8,0.9-0.8C19.3,11.9,19.7,12.3,19.7,12.8z M14.9,12.8c0,0.5-0.4,0.8-0.9,0.8
		c-0.5,0-0.9-0.4-0.9-0.8c0-0.5,0.4-0.8,0.9-0.8C14.5,11.9,14.9,12.3,14.9,12.8z"/>
</g>
</svg>
